<svg xmlns="http://www.w3.org/2000/svg" viewBox="0 0 1846 731"><defs><style>.cls-1{fill:#f9f9f9;}.cls-2{fill:#686868;}.cls-3{fill:#545454;}.cls-4{fill:#0edd0e;}.cls-5{fill:#ea0000;}.cls-6{fill:#eaeaea;}.cls-7{fill:#dbdbdb;}.cls-8{fill:#303030;}.cls-9{fill:#a5a5a5;}.cls-10,.cls-11{fill:#6b6b6b;}.cls-11{stroke:#000002;stroke-miterlimit:10;stroke-width:3px;}.cls-12{fill:red;}.cls-13{fill:#8c8c8c;}.cls-14{fill:#ffd400;}.cls-15,.cls-18{fill:#c4c4c4;}.cls-16{fill:#ddd;}.cls-17{fill:#e2e2e2;}.cls-18{opacity:0.15;}.cls-19{fill:#ba001f;}.cls-20{fill:#898989;}.cls-21{fill:#ffa630;}</style></defs><title>Artboard 3</title><g id="Layer_8" data-name="Layer 8"><polygon class="cls-1" points="378.64 220.71 112.14 489.07 608.92 489.07 378.64 220.71"/><polygon class="cls-2" points="1209.08 489.16 1665.66 489.16 1706.55 489.16 1785.04 554.9 1159.2 554.9 1209.08 489.16"/><polygon class="cls-2" points="111.88 489.16 568.47 489.16 609.35 489.16 687.84 554.9 62 554.9 111.88 489.16"/><path class="cls-3" d="M1263.62,506.1c-11.79,17.53.76,26.76,17.78,29.28s385.36,6.71,406.87,0,16.13-17.62,16.13-17.62-1.79-7.55-10.75-8.39-430-3.27-430-3.27h0"/><path class="cls-4" d="M394.42,212.36c0,9.23-6.86,16.71-15.32,16.71s-15.32-7.48-15.32-16.71"/><path class="cls-2" d="M633.06,204H360.22a2.94,2.94,0,0,0-2.94,2.94v5.26a2.94,2.94,0,0,0,2.94,2.94h269.9a2.94,2.94,0,0,1,2.94,2.94v302.4a2.94,2.94,0,0,0,2.94,2.94h6.19a2.94,2.94,0,0,0,2.94-2.94V206.94a2.94,2.94,0,0,0-2.94-2.94Z"/><polygon class="cls-1" points="1471.64 220.71 1205.14 489.07 1701.92 489.07 1471.64 220.71"/><path class="cls-5" d="M1487.42,212.36c0,9.23-6.86,16.71-15.32,16.71s-15.32-7.48-15.32-16.71"/><path class="cls-2" d="M1726.06,204H1453.22a2.94,2.94,0,0,0-2.94,2.94v5.26a2.94,2.94,0,0,0,2.94,2.94h269.9a2.94,2.94,0,0,1,2.94,2.94v302.4a2.94,2.94,0,0,0,2.94,2.94h6.19a2.94,2.94,0,0,0,2.94-2.94V206.94a2.94,2.94,0,0,0-2.94-2.94Z"/><g id="car"><path d="M1281.42,508.73l12.29-2.46s4.91-51.59,37.47-45.45,30.71,52.83,30.71,52.83,10-3.44,13,.73,7.89-30.22,7.89-30.22l-30.71-36.24-52.82.62-22.12,25.18Z"/><path d="M1582.4,513.65s12.9,0,19,3.68,63.26-3.68,63.26-3.68,9.92-.2,13,2.35,7.94-26.92,7.94-26.92l-9.22-25.8-16.58-11.67-24.57-5.53-35.62,3.07-17.82,22.73Z"/><path class="cls-6" d="M1374.79,514.87h208.84s-3.31-63.46,47.91-62.65c38.69.62,47.91,34.4,46.06,64.5,0,0,27-6.15,35-11.67l-1.84-35s-25.18-36.24-87.22-39.93-70.64-5.53-70.64-5.53-57.12-36.24-82.3-36.85-166.46,10.44-207,47.91c0,0-20.27,44.84-6.76,64.49,0,0,18.43,8.6,25.8,9.22,0,0-4-60.51,46.38-58.05S1376.94,504.13,1374.79,514.87Z"/><path class="cls-7" d="M1362.28,464.85s167-23.51,247.76-8.33c0,0-28.87,12.9-26.41,58.35H1374.79S1379.56,483.93,1362.28,464.85Z"/><circle class="cls-8" cx="1329.03" cy="494.91" r="39"/><circle class="cls-9" cx="1329.03" cy="494.91" r="31.63"/><circle cx="1329.03" cy="494.91" r="26.72"/><circle class="cls-9" cx="1329.03" cy="494.91" r="4.61"/><circle class="cls-8" cx="1631.84" cy="494.91" r="39"/><circle class="cls-9" cx="1631.84" cy="494.91" r="31.63"/><circle cx="1631.23" cy="494.91" r="26.72"/><path class="cls-10" d="M1395.06,430.11s-.62,19,2.45,21.5,14.13-.62,14.13-.62-2.46-12.28-7.37-17.81S1395.06,430.11,1395.06,430.11Z"/><path class="cls-11" d="M1525.89,426.42l-112.41,1.85s-39.31-6.76-44.22-11.67-3.69-8.6-3.69-8.6,63.88-17.2,109.34-15.36C1474.91,392.64,1524.66,421.51,1525.89,426.42Z"/><path class="cls-12" d="M1306.61,423.35s-12.29-4.3-30.1,6.15-17.81,17.19-17.81,17.19,5.52,1.85,16.58.62c0,0,7.37-2.46,9.83-4.3,0,0-7.07-1.54-8.91-4S1298.93,424.27,1306.61,423.35Z"/><path class="cls-13" d="M1702.17,461.44S1696,465.12,1673.3,451l5.84.31H1681s-30.71-12.9-32.55-15.35C1648.43,436,1689.58,443.93,1702.17,461.44Z"/><path class="cls-14" d="M1661,442.39s20.88,4.3,25.8,11.06c0,0-4,2.15-8.3-1.53l3.38-.31S1675.76,449.77,1661,442.39Z"/><path class="cls-15" d="M1293.42,418.13a108.33,108.33,0,0,1-24.28,2.77s5.85,4.83,4.76,7C1273.9,427.92,1290.07,420.29,1293.42,418.13Z"/><path class="cls-15" d="M1434.77,426.69s-1.63-19.92-7.77-17.46c0,0,39.31-6.76,45.45-3.08s25.9,16.84,27.07,19.48"/><circle class="cls-9" cx="1632.46" cy="494.91" r="4.61"/><rect x="1490.88" y="409.84" width="23.34" height="14.74" rx="7.37"/><polygon class="cls-15" points="1583.63 514.87 1415.8 514.74 1388.3 506.89 1583.77 506.89 1583.63 514.87"/><path class="cls-15" d="M1252.21,481.33s16,14.12,30.88,15.54l-.44,12.48s-18.43-4.3-25.8-9.22S1252.21,481.33,1252.21,481.33Z"/><path class="cls-16" d="M1686.82,514.42s5.52-27.8-1.23-37c0,0,10.44-.62,16.58,4.91,0,0,4.3,6.14,1.84,15.36,0,0,1.6,4.44,8.48,5l.12,2.39A103,103,0,0,1,1686.82,514.42Z"/><path class="cls-17" d="M1686.82,454.07s-.62,1.22,7.37,4.29,3.12-2.15,3.12-2.15Z"/><polygon points="1511.37 423.03 1514.22 426.62 1525.89 426.43 1511.15 417.21 1511.37 423.03"/><path class="cls-17" d="M1275.89,439.22s-9,3.62-9.78,1S1275.89,439.22,1275.89,439.22Z"/><path d="M1395,401.23v23.35l9.92,2.11,3.23.61s-5.17-20.73-4.84-27.7Z"/><path class="cls-18" d="M1677.6,516.72s6.76-62-44.22-64.5-49.75,62.65-49.75,62.65h-12.22s-1.3-73.09,62-71.25,53.44,70.64,53.44,70.64l-9.22,2.46"/><path class="cls-18" d="M1271.76,506.35s-3.85-70.71,58.19-62.73,52.21,55.62,52.82,71.12l-7.68-.17s8.6-60.81-46.06-63.27c0,0-44.84-7.37-46.69,57.74Z"/><path class="cls-19" d="M1349.49,477.73s-5.42,2.13-4.8,4,4.91,16,3.68,19.65,5.62,3.09,5.62,3.09S1359.81,489.11,1349.49,477.73Z"/><path class="cls-19" d="M1651.74,477.73s-5.47,2.13-4.85,4,5,16,3.73,19.65,5.68,3.09,5.68,3.09S1662.18,489.11,1651.74,477.73Z"/><polygon class="cls-9" points="1328.72 494.6 1321.35 466.96 1338.55 466.96 1328.72 494.6"/><polygon class="cls-9" points="1329.19 494.89 1353.93 480.53 1358.44 497.13 1329.19 494.89"/><polygon class="cls-9" points="1329.38 494.73 1349.98 514.57 1335.27 523.47 1329.38 494.73"/><polygon class="cls-9" points="1328.24 494.49 1317.36 520.94 1303.68 510.52 1328.24 494.49"/><polygon class="cls-9" points="1328.33 494.49 1299.73 495.06 1303.83 478.35 1328.33 494.49"/><polygon class="cls-9" points="1631.54 494.6 1624.16 466.96 1641.36 466.96 1631.54 494.6"/><polygon class="cls-9" points="1632 494.89 1656.74 480.53 1661.25 497.13 1632 494.89"/><polygon class="cls-9" points="1632.19 494.73 1652.8 514.57 1638.08 523.47 1632.19 494.73"/><polygon class="cls-9" points="1631.06 494.49 1620.18 520.94 1606.49 510.52 1631.06 494.49"/><polygon class="cls-9" points="1631.15 494.49 1602.55 495.06 1606.65 478.35 1631.15 494.49"/><rect class="cls-20" x="1398.74" y="435.64" width="4.3" height="13.51" rx="2.15" transform="translate(-33.83 126.53) rotate(-5.11)"/></g><polygon class="cls-21" points="838 341 838 388 923 388 923 419 1007 365 923 311 923 341 838 341"/></g></svg>