<svg xmlns="http://www.w3.org/2000/svg" width="748" height="560" viewBox="0 0 748 560"><title>flat-mallArtboard 6</title><g id="Layer_9" data-name="Layer 9"><rect x="20" y="246.5" width="57" height="286" style="fill:#978cb4"/><polygon points="155 532.5 77 532.5 77 177.5 155 205.5 155 532.5" style="fill:#6e527b"/><path d="M374,.5c-121,0-219,26.4-219,59v473H593V59.5C593,26.9,495,.5,374,.5Z" style="fill:#978cb4"/><rect x="671" y="246.5" width="57" height="286" transform="translate(1399 779) rotate(-180)" style="fill:#615c70"/><polygon points="593 532.5 671 532.5 671 177.5 593 205.5 593 532.5" style="fill:#6e527b"/><polygon points="651 532.5 671 532.5 671 177.5 651 184.5 651 532.5" style="fill:#855e95"/><rect y="532.5" width="748" height="28" style="fill:#4f4f4f"/><g id="janelas"><path d="M537,269.1V188.9a405.1,405.1,0,0,0-49-9.9v78.4A409.9,409.9,0,0,1,537,269.1Z" style="fill:#51a7c0"/><path d="M537,367.7a484.6,484.6,0,0,0-49-10.1v76c16.2,1.7,32.8,3.8,49,6.4Z" style="fill:#51a7c0"/><path d="M488,271.4v73.3c16.2,2.5,32.8,5.7,49,9.8V283.1A409.9,409.9,0,0,0,488,271.4Z" style="fill:#51a7c0"/><path d="M488,445.7v79.8h49V452.7C520.6,449.7,504,447.4,488,445.7Z" style="fill:#51a7c0"/><path d="M581,383.1a277.1,277.1,0,0,0-32-11.9v70.9c11.1,2.1,21.9,4.5,32,7.1Z" style="fill:#51a7c0"/><path d="M549,455.1v70.4h32V463.2C570.6,460.1,559.9,457.4,549,455.1Z" style="fill:#51a7c0"/><path d="M581,287V214.5h-.3c-2-8-13.3-15.5-31.7-21.8v80.4A224,224,0,0,1,581,287Z" style="fill:#51a7c0"/><path d="M549,287.1v70.7a280.4,280.4,0,0,1,32,11.3V301A224,224,0,0,0,549,287.1Z" style="fill:#51a7c0"/><path d="M202,192c-19.5,6.5-31.6,14.2-33.7,22.5H168v73a242.3,242.3,0,0,1,34-14.8Z" style="fill:#fff"/><path d="M202,286.7a242.3,242.3,0,0,0-34,14.8v68a283.3,283.3,0,0,1,34-12Z" style="fill:#fff"/><path d="M168,463.5v62h34V454.9C190.4,457.3,179,460.2,168,463.5Z" style="fill:#fff"/><path d="M202,370.9a269.9,269.9,0,0,0-34,12.6v66c10.7-2.9,22.2-5.4,34-7.5Z" style="fill:#fff"/><path d="M278,268.8v73.7a778.2,778.2,0,0,1,91-6V262.4A632.5,632.5,0,0,0,278,268.8Z" style="fill:#b1dcef"/><path d="M369,427.5V350.4a661.6,661.6,0,0,0-91,5v76.7C319.3,428.5,355.2,427.7,369,427.5Z" style="fill:#b1dcef"/><path d="M369,248.4V171.5a834.6,834.6,0,0,0-91,5.3v78A632.5,632.5,0,0,1,369,248.4Z" style="fill:#b1dcef"/><path d="M214,354.3a507.6,507.6,0,0,1,52-10.2V270.7a406.9,406.9,0,0,0-52,12.1Z" style="fill:#fff"/><path d="M266,433.2V357a469.6,469.6,0,0,0-52,10.5v72.4C231.2,437.1,248.9,434.9,266,433.2Z" style="fill:#fff"/><path d="M266,256.7V178.3a411,411,0,0,0-52,10.1v80.4A406.9,406.9,0,0,1,266,256.7Z" style="fill:#fff"/><path d="M214,452.5v73h52V445.3C249.1,447,231.5,449.3,214,452.5Z" style="fill:#fff"/><path d="M476,355.9a663.3,663.3,0,0,0-95-5.5v77.1c14.2.2,52,1.1,95,5Z" style="fill:#b1dcef"/><path d="M476,255.4v-78a841.3,841.3,0,0,0-95-5.9v76.9A626.9,626.9,0,0,1,476,255.4Z" style="fill:#b1dcef"/><path d="M381,262.4v74.1a790.4,790.4,0,0,1,95,6.5V269.4A626.9,626.9,0,0,0,381,262.4Z" style="fill:#b1dcef"/><path d="M308,442.2c-9.4.5-19.5,1.1-30,2v81.3h30Z" style="fill:#b1dcef"/><path d="M321,441.7v83.8h48V441.3C360.4,441.1,343.1,440.9,321,441.7Z" style="fill:#b1dcef"/><path d="M431,441.7c-23.1-.8-41.1-.6-50-.4v84.2h50Z" style="fill:#b1dcef"/><path d="M444,442.3v83.2h32V444.6C464.8,443.6,454.1,442.8,444,442.3Z" style="fill:#b1dcef"/></g><text transform="matrix(0.94, -0.33, 0, 1, 175.27, 145.37)" style="font-size:77px;fill:#fff;font-family:Humanist777BT-BlackCondensedB, Humnst777 BlkCn BT;font-weight:800">D</text><text transform="matrix(0.98, -0.19, 0, 1, 223.05, 129.56)" style="font-size:77px;fill:#fff;font-family:Humanist777BT-BlackCondensedB, Humnst777 BlkCn BT;font-weight:800">a</text><text transform="matrix(0.99, -0.12, 0, 1, 261.98, 121.98)" style="font-size:77px;fill:#fff;font-family:Humanist777BT-BlackCondensedB, Humnst777 BlkCn BT;font-weight:800">v</text><text transform="matrix(1, -0.08, 0, 1, 300.45, 117.46)" style="font-size:77px;fill:#fff;font-family:Humanist777BT-BlackCondensedB, Humnst777 BlkCn BT;font-weight:800">i</text><text transform="matrix(1, -0.04, 0, 1, 320.78, 115.63)" style="font-size:77px;fill:#fff;font-family:Humanist777BT-BlackCondensedB, Humnst777 BlkCn BT;font-weight:800">d</text><text transform="matrix(1, 0.01, 0, 1, 363.57, 114.01)" style="font-size:77px;fill:#fff;font-family:Humanist777BT-BlackCondensedB, Humnst777 BlkCn BT;font-weight:800">C</text><text transform="matrix(1, 0.06, 0, 1, 405.79, 114.57)" style="font-size:77px;fill:#fff;font-family:Humanist777BT-BlackCondensedB, Humnst777 BlkCn BT;font-weight:800">e</text><text transform="matrix(0.99, 0.12, 0, 1, 444.7, 116.94)" style="font-size:77px;fill:#fff;font-family:Humanist777BT-BlackCondensedB, Humnst777 BlkCn BT;font-weight:800">n</text><text transform="matrix(0.98, 0.18, 0, 1, 485.96, 122.1)" style="font-size:77px;fill:#fff;font-family:Humanist777BT-BlackCondensedB, Humnst777 BlkCn BT;font-weight:800">t</text><text transform="matrix(0.97, 0.26, 0, 1, 512.2, 126.54)" style="font-size:77px;fill:#fff;font-family:Humanist777BT-BlackCondensedB, Humnst777 BlkCn BT;font-weight:800">e</text><text transform="matrix(0.91, 0.4, 0, 1, 549.86, 136.83)" style="font-size:77px;fill:#fff;font-family:Humanist777BT-BlackCondensedB, Humnst777 BlkCn BT;font-weight:800">r</text></g></svg>